<?xml version="1.0" encoding="UTF-8" standalone="no"?>
<!DOCTYPE svg PUBLIC "-//W3C//DTD SVG 1.1//EN"
 "http://www.w3.org/Graphics/SVG/1.1/DTD/svg11.dtd">
<!-- Generated by graphviz version 13.1.0 (0)
 -->
<!-- Title: G Pages: 1 -->
<svg width="608pt" height="730pt"
 viewBox="0.00 0.00 608.00 730.00" xmlns="http://www.w3.org/2000/svg" xmlns:xlink="http://www.w3.org/1999/xlink">
<g id="graph0" class="graph" transform="scale(1 1) rotate(0) translate(4 725.85)">
<title>G</title><style>.edge>path:hover{stroke-width:8}</style>
<polygon fill="white" stroke="none" points="-4,4 -4,-725.85 604.14,-725.85 604.14,4 -4,4"/>
<!-- config -->
<g id="node1" class="node">
<title>config</title><style>.edge>path:hover{stroke-width:8}</style>
<ellipse fill="#b65353" stroke="black" cx="342.29" cy="-162" rx="27.69" ry="18"/>
<text xml:space="preserve" text-anchor="middle" x="342.29" y="-158.88" font-family="Helvetica,sans-Serif" font-size="10.00" fill="#ffffff">config</text>
</g>
<!-- main_py -->
<g id="node4" class="node">
<title>main_py</title><style>.edge>path:hover{stroke-width:8}</style>
<ellipse fill="#4b8b4b" stroke="black" cx="126.29" cy="-18" rx="34.11" ry="18"/>
<text xml:space="preserve" text-anchor="middle" x="126.29" y="-14.88" font-family="Helvetica,sans-Serif" font-size="10.00" fill="#ffffff">main.py</text>
</g>
<!-- config&#45;&gt;main_py -->
<g id="edge1" class="edge">
<title>config&#45;&gt;main_py</title><style>.edge>path:hover{stroke-width:8}</style>
<path fill="none" stroke="black" d="M320.23,-150.63C281.75,-132.45 206.07,-96.25 202.29,-91"/>
</g>
<!-- config_settings -->
<g id="node2" class="node">
<title>config_settings</title><style>.edge>path:hover{stroke-width:8}</style>
<polygon fill="blue" stroke="black" points="78.79,-180 23.79,-180 23.79,-144 78.79,-144 78.79,-180"/>
<text xml:space="preserve" text-anchor="middle" x="51.29" y="-165.25" font-family="Helvetica,sans-Serif" font-size="10.00" fill="white">config.</text>
<text xml:space="preserve" text-anchor="middle" x="51.29" y="-152.5" font-family="Helvetica,sans-Serif" font-size="10.00" fill="white">settings</text>
</g>
<!-- config_settings_local -->
<g id="node3" class="node">
<title>config_settings_local</title><style>.edge>path:hover{stroke-width:8}</style>
<polygon fill="blue" stroke="black" points="163.04,-108 79.54,-108 79.54,-72 163.04,-72 163.04,-108"/>
<text xml:space="preserve" text-anchor="middle" x="121.29" y="-93.25" font-family="Helvetica,sans-Serif" font-size="10.00" fill="white">config.</text>
<text xml:space="preserve" text-anchor="middle" x="121.29" y="-80.5" font-family="Helvetica,sans-Serif" font-size="10.00" fill="white">settings_local</text>
</g>
<!-- config_settings&#45;&gt;config_settings_local -->
<g id="edge2" class="edge">
<title>config_settings&#45;&gt;config_settings_local</title><style>.edge>path:hover{stroke-width:8}</style>
<path fill="none" stroke="black" d="M76.65,-135.64C83.09,-129.2 89.99,-122.3 96.4,-115.89"/>
<polygon fill="blue" stroke="black" points="74.26,-133.08 69.66,-142.63 79.21,-138.03 74.26,-133.08"/>
<polygon fill="blue" stroke="black" points="98.52,-118.72 103.12,-109.17 93.57,-113.77 98.52,-118.72"/>
</g>
<!-- config_settings&#45;&gt;main_py -->
<g id="edge3" class="edge">
<title>config_settings&#45;&gt;main_py</title><style>.edge>path:hover{stroke-width:8}</style>
<path fill="none" stroke="black" d="M51.97,-143.53C53.38,-124.76 57.61,-94.59 70.29,-72 77.08,-59.9 87.55,-48.91 97.61,-40.12"/>
<polygon fill="blue" stroke="black" points="99.6,-43.02 105.08,-33.95 95.14,-37.62 99.6,-43.02"/>
</g>
<!-- watchdog -->
<g id="node5" class="node">
<title>watchdog</title><style>.edge>path:hover{stroke-width:8}</style>
<ellipse fill="#1010f9" stroke="black" cx="135.29" cy="-162" rx="38.7" ry="18"/>
<text xml:space="preserve" text-anchor="middle" x="135.29" y="-158.88" font-family="Helvetica,sans-Serif" font-size="10.00" fill="#ffffff">watchdog</text>
</g>
<!-- watchdog&#45;&gt;main_py -->
<g id="edge5" class="edge">
<title>watchdog&#45;&gt;main_py</title><style>.edge>path:hover{stroke-width:8}</style>
<path fill="none" stroke="black" d="M162.2,-148.56C187.15,-135.27 218.21,-113.12 202.29,-91"/>
<path fill="none" stroke="black" d="M202.29,-89C188.89,-70.38 169.91,-52.89 154.27,-40.05"/>
<polygon fill="#1010f9" stroke="black" points="156.69,-37.51 146.7,-34 152.32,-42.98 156.69,-37.51"/>
</g>
<!-- watchdog_events -->
<g id="node6" class="node">
<title>watchdog_events</title><style>.edge>path:hover{stroke-width:8}</style>
<ellipse fill="#0505e5" stroke="black" cx="327.29" cy="-524.75" rx="46.85" ry="23.69"/>
<text xml:space="preserve" text-anchor="middle" x="327.29" y="-528" font-family="Helvetica,sans-Serif" font-size="10.00" fill="#ffffff">watchdog.</text>
<text xml:space="preserve" text-anchor="middle" x="327.29" y="-515.25" font-family="Helvetica,sans-Serif" font-size="10.00" fill="#ffffff">events</text>
</g>
<!-- watchdog_events&#45;&gt;main_py -->
<g id="edge6" class="edge">
<title>watchdog_events&#45;&gt;main_py</title><style>.edge>path:hover{stroke-width:8}</style>
<path fill="none" stroke="black" d="M283.15,-516.01C215.59,-502.91 93.26,-473.83 83.29,-433.36"/>
<path fill="none" stroke="black" d="M83.29,-431.36C72.73,-388.46 81.37,-376.09 83.29,-331.95"/>
<path fill="none" stroke="black" d="M83.29,-329.95C85.24,-285.09 26.53,-303.29 8.29,-262.25 -0.06,-243.47 -4.7,-231.93 8.29,-216 58.47,-154.45 126.93,-235.94 183.29,-180 212,-151.51 225.92,-123.83 202.29,-91"/>
</g>
<!-- watchdog_observers_api -->
<g id="node8" class="node">
<title>watchdog_observers_api</title><style>.edge>path:hover{stroke-width:8}</style>
<ellipse fill="#0b0bdf" stroke="black" cx="263.29" cy="-330.95" rx="47.38" ry="32.7"/>
<text xml:space="preserve" text-anchor="middle" x="263.29" y="-340.58" font-family="Helvetica,sans-Serif" font-size="10.00" fill="#ffffff">watchdog.</text>
<text xml:space="preserve" text-anchor="middle" x="263.29" y="-327.83" font-family="Helvetica,sans-Serif" font-size="10.00" fill="#ffffff">observers.</text>
<text xml:space="preserve" text-anchor="middle" x="263.29" y="-315.08" font-family="Helvetica,sans-Serif" font-size="10.00" fill="#ffffff">api</text>
</g>
<!-- watchdog_events&#45;&gt;watchdog_observers_api -->
<g id="edge7" class="edge">
<title>watchdog_events&#45;&gt;watchdog_observers_api</title><style>.edge>path:hover{stroke-width:8}</style>
<path fill="none" stroke="black" d="M83.29,-431.36C69.25,-374.33 147.61,-349.54 205.39,-339.11"/>
<polygon fill="#0505e5" stroke="black" points="205.88,-342.58 215.15,-337.47 204.71,-335.68 205.88,-342.58"/>
</g>
<!-- watchdog_observers_fsevents -->
<g id="node9" class="node">
<title>watchdog_observers_fsevents</title><style>.edge>path:hover{stroke-width:8}</style>
<polygon fill="blue" stroke="black" points="567.79,-262.25 500.79,-262.25 500.79,-216 567.79,-216 567.79,-262.25"/>
<text xml:space="preserve" text-anchor="middle" x="534.29" y="-248.75" font-family="Helvetica,sans-Serif" font-size="10.00" fill="white">watchdog.</text>
<text xml:space="preserve" text-anchor="middle" x="534.29" y="-236" font-family="Helvetica,sans-Serif" font-size="10.00" fill="white">observers.</text>
<text xml:space="preserve" text-anchor="middle" x="534.29" y="-223.25" font-family="Helvetica,sans-Serif" font-size="10.00" fill="white">fsevents</text>
</g>
<!-- watchdog_events&#45;&gt;watchdog_observers_fsevents -->
<g id="edge8" class="edge">
<title>watchdog_events&#45;&gt;watchdog_observers_fsevents</title><style>.edge>path:hover{stroke-width:8}</style>
<path fill="none" stroke="black" d="M363.83,-509.4C371.84,-506.47 380.3,-503.53 388.29,-501.06 451.73,-481.46 492.27,-517.28 533.29,-465.06 576.64,-409.89 559.63,-321.35 545.64,-273.47"/>
<polygon fill="#0505e5" stroke="black" points="548.99,-272.47 542.71,-263.94 542.3,-274.53 548.99,-272.47"/>
</g>
<!-- watchdog_observers_inotify -->
<g id="node10" class="node">
<title>watchdog_observers_inotify</title><style>.edge>path:hover{stroke-width:8}</style>
<polygon fill="blue" stroke="black" points="234.79,-262.25 167.79,-262.25 167.79,-216 234.79,-216 234.79,-262.25"/>
<text xml:space="preserve" text-anchor="middle" x="201.29" y="-248.75" font-family="Helvetica,sans-Serif" font-size="10.00" fill="white">watchdog.</text>
<text xml:space="preserve" text-anchor="middle" x="201.29" y="-236" font-family="Helvetica,sans-Serif" font-size="10.00" fill="white">observers.</text>
<text xml:space="preserve" text-anchor="middle" x="201.29" y="-223.25" font-family="Helvetica,sans-Serif" font-size="10.00" fill="white">inotify</text>
</g>
<!-- watchdog_events&#45;&gt;watchdog_observers_inotify -->
<g id="edge9" class="edge">
<title>watchdog_events&#45;&gt;watchdog_observers_inotify</title><style>.edge>path:hover{stroke-width:8}</style>
<path fill="none" stroke="black" d="M83.29,-329.95C84.13,-310.64 124.59,-283.07 157.9,-263.58"/>
<polygon fill="#0505e5" stroke="black" points="159.27,-266.83 166.2,-258.82 155.78,-260.76 159.27,-266.83"/>
</g>
<!-- watchdog_observers_kqueue -->
<g id="node11" class="node">
<title>watchdog_observers_kqueue</title><style>.edge>path:hover{stroke-width:8}</style>
<polygon fill="blue" stroke="black" points="443.79,-262.25 376.79,-262.25 376.79,-216 443.79,-216 443.79,-262.25"/>
<text xml:space="preserve" text-anchor="middle" x="410.29" y="-248.75" font-family="Helvetica,sans-Serif" font-size="10.00" fill="white">watchdog.</text>
<text xml:space="preserve" text-anchor="middle" x="410.29" y="-236" font-family="Helvetica,sans-Serif" font-size="10.00" fill="white">observers.</text>
<text xml:space="preserve" text-anchor="middle" x="410.29" y="-223.25" font-family="Helvetica,sans-Serif" font-size="10.00" fill="white">kqueue</text>
</g>
<!-- watchdog_events&#45;&gt;watchdog_observers_kqueue -->
<g id="edge10" class="edge">
<title>watchdog_events&#45;&gt;watchdog_observers_kqueue</title><style>.edge>path:hover{stroke-width:8}</style>
<path fill="none" stroke="black" d="M364.29,-431.36C377.5,-385.94 395.88,-378.82 402.29,-331.95"/>
<path fill="none" stroke="black" d="M402.29,-329.95C404.83,-311.43 406.74,-290.63 408.06,-273.72"/>
<polygon fill="#0505e5" stroke="black" points="411.51,-274.45 408.76,-264.22 404.53,-273.93 411.51,-274.45"/>
</g>
<!-- watchdog_observers_polling -->
<g id="node12" class="node">
<title>watchdog_observers_polling</title><style>.edge>path:hover{stroke-width:8}</style>
<polygon fill="blue" stroke="black" points="358.79,-262.25 291.79,-262.25 291.79,-216 358.79,-216 358.79,-262.25"/>
<text xml:space="preserve" text-anchor="middle" x="325.29" y="-248.75" font-family="Helvetica,sans-Serif" font-size="10.00" fill="white">watchdog.</text>
<text xml:space="preserve" text-anchor="middle" x="325.29" y="-236" font-family="Helvetica,sans-Serif" font-size="10.00" fill="white">observers.</text>
<text xml:space="preserve" text-anchor="middle" x="325.29" y="-223.25" font-family="Helvetica,sans-Serif" font-size="10.00" fill="white">polling</text>
</g>
<!-- watchdog_events&#45;&gt;watchdog_observers_polling -->
<g id="edge11" class="edge">
<title>watchdog_events&#45;&gt;watchdog_observers_polling</title><style>.edge>path:hover{stroke-width:8}</style>
<path fill="none" stroke="black" d="M337.92,-501.56C346.16,-483.55 357.33,-457.3 364.29,-433.36"/>
<path fill="none" stroke="black" d="M364.29,-431.36C376.63,-388.94 377.07,-374.25 364.29,-331.95"/>
<path fill="none" stroke="black" d="M364.29,-329.95C358.4,-310.46 349.49,-289.55 341.67,-272.81"/>
<polygon fill="#0505e5" stroke="black" points="344.85,-271.35 337.38,-263.83 338.53,-274.36 344.85,-271.35"/>
</g>
<!-- watchdog_observers_read_directory_changes -->
<g id="node13" class="node">
<title>watchdog_observers_read_directory_changes</title><style>.edge>path:hover{stroke-width:8}</style>
<polygon fill="blue" stroke="black" points="149.42,-262.25 17.17,-262.25 17.17,-216 149.42,-216 149.42,-262.25"/>
<text xml:space="preserve" text-anchor="middle" x="83.29" y="-248.75" font-family="Helvetica,sans-Serif" font-size="10.00" fill="white">watchdog.</text>
<text xml:space="preserve" text-anchor="middle" x="83.29" y="-236" font-family="Helvetica,sans-Serif" font-size="10.00" fill="white">observers.</text>
<text xml:space="preserve" text-anchor="middle" x="83.29" y="-223.25" font-family="Helvetica,sans-Serif" font-size="10.00" fill="white">read_directory_changes</text>
</g>
<!-- watchdog_events&#45;&gt;watchdog_observers_read_directory_changes -->
<g id="edge12" class="edge">
<title>watchdog_events&#45;&gt;watchdog_observers_read_directory_changes</title><style>.edge>path:hover{stroke-width:8}</style>
<path fill="none" stroke="black" d="M83.29,-329.95C84.09,-311.52 84.15,-290.95 83.99,-274.14"/>
<polygon fill="#0505e5" stroke="black" points="87.49,-274.12 83.85,-264.17 80.49,-274.22 87.49,-274.12"/>
</g>
<!-- watchdog_observers -->
<g id="node7" class="node">
<title>watchdog_observers</title><style>.edge>path:hover{stroke-width:8}</style>
<polygon fill="blue" stroke="black" points="296.42,-180 230.17,-180 230.17,-144 296.42,-144 296.42,-180"/>
<text xml:space="preserve" text-anchor="middle" x="263.29" y="-165.25" font-family="Helvetica,sans-Serif" font-size="10.00" fill="white">watchdog.</text>
<text xml:space="preserve" text-anchor="middle" x="263.29" y="-152.5" font-family="Helvetica,sans-Serif" font-size="10.00" fill="white">observers</text>
</g>
<!-- watchdog_observers&#45;&gt;main_py -->
<g id="edge13" class="edge">
<title>watchdog_observers&#45;&gt;main_py</title><style>.edge>path:hover{stroke-width:8}</style>
<path fill="none" stroke="black" d="M246.53,-143.63C233.7,-129.91 215.95,-109.97 202.29,-91"/>
</g>
<!-- watchdog_observers_api&#45;&gt;watchdog_observers -->
<g id="edge14" class="edge">
<title>watchdog_observers_api&#45;&gt;watchdog_observers</title><style>.edge>path:hover{stroke-width:8}</style>
<path fill="none" stroke="black" d="M263.29,-297.76C263.29,-266.95 263.29,-220.91 263.29,-191.42"/>
<polygon fill="#0b0bdf" stroke="black" points="266.79,-191.77 263.29,-181.77 259.79,-191.77 266.79,-191.77"/>
</g>
<!-- watchdog_observers_api&#45;&gt;watchdog_observers_fsevents -->
<g id="edge15" class="edge">
<title>watchdog_observers_api&#45;&gt;watchdog_observers_fsevents</title><style>.edge>path:hover{stroke-width:8}</style>
<path fill="none" stroke="black" d="M305.64,-315.92C355.7,-299.32 438.66,-271.83 489.69,-254.91"/>
<polygon fill="#0b0bdf" stroke="black" points="490.55,-258.31 498.94,-251.84 488.35,-251.67 490.55,-258.31"/>
</g>
<!-- watchdog_observers_api&#45;&gt;watchdog_observers_inotify -->
<g id="edge16" class="edge">
<title>watchdog_observers_api&#45;&gt;watchdog_observers_inotify</title><style>.edge>path:hover{stroke-width:8}</style>
<path fill="none" stroke="black" d="M243.33,-301.04C236.97,-291.82 229.9,-281.58 223.4,-272.16"/>
<polygon fill="#0b0bdf" stroke="black" points="226.31,-270.21 217.75,-263.97 220.55,-274.19 226.31,-270.21"/>
</g>
<!-- watchdog_observers_api&#45;&gt;watchdog_observers_kqueue -->
<g id="edge17" class="edge">
<title>watchdog_observers_api&#45;&gt;watchdog_observers_kqueue</title><style>.edge>path:hover{stroke-width:8}</style>
<path fill="none" stroke="black" d="M298.13,-308.67C318.67,-296.11 344.84,-280.12 366.74,-266.74"/>
<polygon fill="#0b0bdf" stroke="black" points="368.46,-269.79 375.17,-261.59 364.81,-263.81 368.46,-269.79"/>
</g>
<!-- watchdog_observers_api&#45;&gt;watchdog_observers_polling -->
<g id="edge18" class="edge">
<title>watchdog_observers_api&#45;&gt;watchdog_observers_polling</title><style>.edge>path:hover{stroke-width:8}</style>
<path fill="none" stroke="black" d="M283.25,-301.04C289.61,-291.82 296.68,-281.58 303.18,-272.16"/>
<polygon fill="#0b0bdf" stroke="black" points="306.04,-274.19 308.84,-263.97 300.27,-270.21 306.04,-274.19"/>
</g>
<!-- watchdog_observers_api&#45;&gt;watchdog_observers_read_directory_changes -->
<g id="edge19" class="edge">
<title>watchdog_observers_api&#45;&gt;watchdog_observers_read_directory_changes</title><style>.edge>path:hover{stroke-width:8}</style>
<path fill="none" stroke="black" d="M225.56,-311.12C200.4,-298.57 166.91,-281.85 138.74,-267.79"/>
<polygon fill="#0b0bdf" stroke="black" points="140.49,-264.76 129.98,-263.42 137.36,-271.02 140.49,-264.76"/>
</g>
<!-- watchdog_observers_fsevents&#45;&gt;watchdog_observers -->
<g id="edge20" class="edge">
<title>watchdog_observers_fsevents&#45;&gt;watchdog_observers</title><style>.edge>path:hover{stroke-width:8}</style>
<path fill="none" stroke="black" d="M500.34,-221.29C495.68,-219.33 490.92,-217.5 486.29,-216 411.64,-191.75 386.07,-202.46 307.48,-180.31"/>
<polygon fill="blue" stroke="black" points="308.59,-176.99 298.01,-177.55 306.63,-183.71 308.59,-176.99"/>
</g>
<!-- watchdog_observers_inotify&#45;&gt;watchdog_observers -->
<g id="edge21" class="edge">
<title>watchdog_observers_inotify&#45;&gt;watchdog_observers</title><style>.edge>path:hover{stroke-width:8}</style>
<path fill="none" stroke="black" d="M219.89,-215.59C226.88,-207.12 234.88,-197.43 242.09,-188.69"/>
<polygon fill="blue" stroke="black" points="244.61,-191.14 248.27,-181.2 239.21,-186.68 244.61,-191.14"/>
</g>
<!-- watchdog_observers_kqueue&#45;&gt;watchdog_observers -->
<g id="edge22" class="edge">
<title>watchdog_observers_kqueue&#45;&gt;watchdog_observers</title><style>.edge>path:hover{stroke-width:8}</style>
<path fill="none" stroke="black" d="M376.39,-220.2C373.65,-218.77 370.93,-217.36 368.29,-216 348.08,-205.58 325.58,-194.19 306.61,-184.65"/>
<polygon fill="blue" stroke="black" points="308.33,-181.6 297.82,-180.24 305.19,-187.86 308.33,-181.6"/>
</g>
<!-- watchdog_observers_polling&#45;&gt;watchdog_observers -->
<g id="edge23" class="edge">
<title>watchdog_observers_polling&#45;&gt;watchdog_observers</title><style>.edge>path:hover{stroke-width:8}</style>
<path fill="none" stroke="black" d="M306.69,-215.59C299.7,-207.12 291.71,-197.43 284.5,-188.69"/>
<polygon fill="blue" stroke="black" points="287.37,-186.68 278.31,-181.2 281.97,-191.14 287.37,-186.68"/>
</g>
<!-- watchdog_observers_read_directory_changes&#45;&gt;watchdog_observers -->
<g id="edge24" class="edge">
<title>watchdog_observers_read_directory_changes&#45;&gt;watchdog_observers</title><style>.edge>path:hover{stroke-width:8}</style>
<path fill="none" stroke="black" d="M137.3,-215.59C163.46,-204.67 194.47,-191.72 219.19,-181.41"/>
<polygon fill="blue" stroke="black" points="220.43,-184.68 228.31,-177.6 217.74,-178.22 220.43,-184.68"/>
</g>
<!-- watchdog_utils -->
<g id="node14" class="node">
<title>watchdog_utils</title><style>.edge>path:hover{stroke-width:8}</style>
<ellipse fill="#0c0cf3" stroke="black" cx="402.29" cy="-602.44" rx="53.39" ry="18"/>
<text xml:space="preserve" text-anchor="middle" x="402.29" y="-599.32" font-family="Helvetica,sans-Serif" font-size="10.00" fill="#ffffff">watchdog.utils</text>
</g>
<!-- watchdog_utils&#45;&gt;watchdog_events -->
<g id="edge25" class="edge">
<title>watchdog_utils&#45;&gt;watchdog_events</title><style>.edge>path:hover{stroke-width:8}</style>
<path fill="none" stroke="black" d="M386.02,-585.02C377.18,-576.1 365.99,-564.81 355.76,-554.49"/>
<polygon fill="#0c0cf3" stroke="black" points="358.42,-552.19 348.89,-547.55 353.44,-557.12 358.42,-552.19"/>
</g>
<!-- watchdog_utils&#45;&gt;watchdog_observers -->
<g id="edge26" class="edge">
<title>watchdog_utils&#45;&gt;watchdog_observers</title><style>.edge>path:hover{stroke-width:8}</style>
<path fill="none" stroke="black" d="M596.29,-329.95C592.31,-278.76 614.2,-251.69 577.29,-216 535.69,-175.77 381.11,-193.5 307.58,-179.81"/>
<polygon fill="#0c0cf3" stroke="black" points="308.5,-176.43 297.98,-177.66 306.97,-183.26 308.5,-176.43"/>
</g>
<!-- watchdog_utils&#45;&gt;watchdog_observers_api -->
<g id="edge27" class="edge">
<title>watchdog_utils&#45;&gt;watchdog_observers_api</title><style>.edge>path:hover{stroke-width:8}</style>
<path fill="none" stroke="black" d="M400.43,-584.13C399.2,-568.67 398.45,-545.49 402.29,-525.75"/>
<path fill="none" stroke="black" d="M402.29,-523.75C409.18,-488.32 341.24,-411.27 297.87,-366.36"/>
<polygon fill="#0c0cf3" stroke="black" points="300.62,-364.17 291.14,-359.45 295.61,-369.05 300.62,-364.17"/>
</g>
<!-- watchdog_utils&#45;&gt;watchdog_observers_fsevents -->
<g id="edge28" class="edge">
<title>watchdog_utils&#45;&gt;watchdog_observers_fsevents</title><style>.edge>path:hover{stroke-width:8}</style>
<path fill="none" stroke="black" d="M402.29,-523.75C419.84,-450.93 509.8,-520.4 560.29,-465.06 601.6,-419.79 604.43,-392.7 596.29,-331.95"/>
<path fill="none" stroke="black" d="M596.29,-329.95C594.56,-307.64 581.22,-286.79 567.36,-270.81"/>
<polygon fill="#0c0cf3" stroke="black" points="570.05,-268.56 560.7,-263.56 564.89,-273.29 570.05,-268.56"/>
</g>
<!-- watchdog_utils&#45;&gt;watchdog_observers_kqueue -->
<g id="edge29" class="edge">
<title>watchdog_utils&#45;&gt;watchdog_observers_kqueue</title><style>.edge>path:hover{stroke-width:8}</style>
<path fill="none" stroke="black" d="M402.29,-431.36C398.21,-387.37 396.3,-375.73 402.29,-331.95"/>
</g>
<!-- watchdog_utils&#45;&gt;watchdog_observers_polling -->
<g id="edge30" class="edge">
<title>watchdog_utils&#45;&gt;watchdog_observers_polling</title><style>.edge>path:hover{stroke-width:8}</style>
<path fill="none" stroke="black" d="M402.29,-523.75C411.71,-484.7 406.01,-473.36 402.29,-433.36"/>
<path fill="none" stroke="black" d="M402.29,-431.36C397.92,-384.26 377.97,-377.23 364.29,-331.95"/>
</g>
<!-- watchdog_utils_patterns -->
<g id="node15" class="node">
<title>watchdog_utils_patterns</title><style>.edge>path:hover{stroke-width:8}</style>
<ellipse fill="#5353b6" stroke="black" cx="321.29" cy="-689.14" rx="46.85" ry="32.7"/>
<text xml:space="preserve" text-anchor="middle" x="321.29" y="-698.77" font-family="Helvetica,sans-Serif" font-size="10.00" fill="#ffffff">watchdog.</text>
<text xml:space="preserve" text-anchor="middle" x="321.29" y="-686.02" font-family="Helvetica,sans-Serif" font-size="10.00" fill="#ffffff">utils.</text>
<text xml:space="preserve" text-anchor="middle" x="321.29" y="-673.27" font-family="Helvetica,sans-Serif" font-size="10.00" fill="#ffffff">patterns</text>
</g>
<!-- watchdog_utils_patterns&#45;&gt;watchdog_events -->
<g id="edge31" class="edge">
<title>watchdog_utils_patterns&#45;&gt;watchdog_events</title><style>.edge>path:hover{stroke-width:8}</style>
<path fill="none" stroke="black" d="M322.48,-656.06C323.5,-628.4 324.97,-588.56 326.02,-560.22"/>
<polygon fill="#5353b6" stroke="black" points="329.51,-560.49 326.38,-550.37 322.51,-560.23 329.51,-560.49"/>
</g>
<!-- watchdog_utils_platform -->
<g id="node16" class="node">
<title>watchdog_utils_platform</title><style>.edge>path:hover{stroke-width:8}</style>
<ellipse fill="#4747c2" stroke="black" cx="477.29" cy="-432.36" rx="46.85" ry="32.7"/>
<text xml:space="preserve" text-anchor="middle" x="477.29" y="-441.99" font-family="Helvetica,sans-Serif" font-size="10.00" fill="#ffffff">watchdog.</text>
<text xml:space="preserve" text-anchor="middle" x="477.29" y="-429.24" font-family="Helvetica,sans-Serif" font-size="10.00" fill="#ffffff">utils.</text>
<text xml:space="preserve" text-anchor="middle" x="477.29" y="-416.49" font-family="Helvetica,sans-Serif" font-size="10.00" fill="#ffffff">platform</text>
</g>
<!-- watchdog_utils_platform&#45;&gt;watchdog_observers -->
<g id="edge32" class="edge">
<title>watchdog_utils_platform&#45;&gt;watchdog_observers</title><style>.edge>path:hover{stroke-width:8}</style>
<path fill="none" stroke="black" d="M472.29,-329.95C462.72,-279.51 488.24,-253.61 453.29,-216 409.55,-168.93 373.56,-197.48 307.47,-180.18"/>
<polygon fill="#4747c2" stroke="black" points="308.63,-176.88 298.05,-177.42 306.66,-183.59 308.63,-176.88"/>
</g>
<!-- watchdog_utils_platform&#45;&gt;watchdog_observers_kqueue -->
<g id="edge33" class="edge">
<title>watchdog_utils_platform&#45;&gt;watchdog_observers_kqueue</title><style>.edge>path:hover{stroke-width:8}</style>
<path fill="none" stroke="black" d="M477.9,-399.31C477.72,-379.7 476.51,-354.19 472.29,-331.95"/>
<path fill="none" stroke="black" d="M472.29,-329.95C468.12,-307.96 454.6,-287.14 441.24,-271.09"/>
<polygon fill="#4747c2" stroke="black" points="444.11,-269.05 434.9,-263.83 438.84,-273.66 444.11,-269.05"/>
</g>
</g>
</svg>
